Coordinates
version=1
nRows=10
nColumns=28
inDegrees=yes

Units are S.I. units (second, meters, Newtons, ...)
Angles are in degrees.

endheader
time	pelvis_tilt	pelvis_list	pelvis_rotation	pelvis_tx	pelvis_ty	pelvis_tz	hip_flexion_r	hip_adduction_r	hip_rotation_r	knee_angle_r	ankle_angle_r	subtalar_angle_r	mtp_angle_r	hip_flexion_l	hip_adduction_l	hip_rotation_l	knee_angle_l	socket_flexion	socket_adduction	socket_rotation	socket_tx	socket_ty	socket_tz	foot_flex	lumbar_extension	lumbar_bending	lumbar_rotation
      0.63333333	      0.60375378	     -3.49464845	      7.23749782	     -0.03319063	      0.99125750	      0.29353857	     23.80478916	      3.87383147	     -8.20477965	     -6.30026474	     11.85930526	    -18.77552187	    -11.59137330	    -25.10140910	     -5.84261176	     -2.25176947	      0.18055540	      3.53838859	      0.69221349	     20.55571028	      0.00000000	      0.00257333	      0.00000000	      8.04410113	    -10.82418081	      3.88524994	     -4.50517195
      0.63750000	      0.68178068	     -3.82527726	      7.03062373	     -0.02652808	      0.99007651	      0.29387484	     24.12875061	      4.33609269	     -7.95297857	     -7.41861493	     11.45075345	    -18.92808056	    -11.28572589	    -25.54149410	     -6.11007775	     -2.64915716	      0.11618277	      3.64330291	      0.70447232	     20.49249990	      0.00000000	      0.00238626	      0.00000000	      8.00357590	    -10.82621372	      4.43215147	     -4.66165027
      0.64166667	      0.74083963	     -4.03084289	      6.95262288	     -0.01989070	      0.98903779	      0.29408145	     24.40109023	      4.62367774	     -7.73197124	     -8.45559401	     11.00216293	    -19.08831455	    -10.84820370	    -25.90607026	     -6.30484751	     -2.93627521	      0.02063240	      3.78594257	      0.71873218	     20.55841004	      0.00000000	      0.00237053	      0.00000000	      7.93700153	    -10.81718196	      4.78380562	     -4.64423785
      0.64583333	      0.85319527	     -4.19725263	      6.87554148	     -0.01301751	      0.98805718	      0.29419689	     24.56536419	      4.83762628	     -7.75828571	     -9.28932251	      8.43074173	    -20.17676376	     -2.61904363	    -26.32104249	     -6.45677930	     -3.31158040	     -0.13535648	      3.91049464	      0.70259121	     20.73711851	      0.00000000	      0.00244658	      0.00000000	      7.85989254	    -10.83819760	      5.08014788	     -4.44600201
      0.65000000	      0.92059282	     -4.32639685	      6.93392293	     -0.00657711	      0.98725491	      0.29436882	     24.74403749	      5.02108777	     -7.46471695	    -10.20020669	      8.10412768	    -20.13584931	     -2.63195695	    -26.57003876	     -6.65326696	     -3.20686316	     -0.40222276	      4.02809812	      0.69474940	     20.70206605	      0.00000000	      0.00244090	      0.00000000	      7.75248340	    -10.86402147	      5.34524490	     -4.47431217
      0.65416667	      1.00685919	     -4.50137107	      6.84260923	     -0.00009454	      0.98637390	      0.29475614	     25.04236060	      5.28499812	     -7.32390088	    -11.38153781	      7.66932687	    -20.17450367	     -2.62374219	    -26.84658357	     -6.81416034	     -3.29409597	     -0.73822962	      4.10985866	      0.67239990	     20.49339542	      0.00000000	      0.00230062	      0.00000000	      7.59397049	    -10.92389164	      5.64582264	     -4.51626193
      0.65833333	      0.95422506	     -4.65725495	      6.63562284	      0.00668558	      0.98528439	      0.29519188	     25.52316993	      5.52348952	     -7.25107799	    -12.66840462	      7.19405720	    -20.32455821	     -2.14525547	    -26.96465500	     -6.88681650	     -3.74358059	     -1.20376414	      4.13374928	      0.59780993	     20.59506900	      0.00000000	      0.00222666	      0.00000000	      7.44947941	    -10.76928399	      5.88912815	     -4.32820668
      0.66250000	      0.88265697	     -4.76758453	      6.56277122	      0.01325960	      0.98431446	      0.29554556	     25.93451122	      5.66442652	     -7.18386905	    -13.73071426	      5.87794201	    -20.74309358	      1.40790698	    -26.75409256	     -6.99943151	     -4.08655959	     -2.40872080	      3.75633356	      0.37439487	     20.77311193	      0.00000000	      0.00202696	      0.00000000	      7.24416928	    -10.62402364	      6.09144530	     -4.29245076
      0.66666667	      0.97228428	     -4.94832529	      6.51160387	      0.01981530	      0.98363952	      0.29597280	     26.12767518	      5.93294723	     -6.98665566	    -14.76329391	      5.51074390	    -20.72394878	      1.39740870	    -26.98198477	     -7.19584162	     -4.06230841	     -2.76730933	      3.91198905	      0.38338423	     20.59533622	      0.00000000	      0.00189094	      0.00000000	      7.01596608	    -10.67351092	      6.38669293	     -4.30383634
      0.67083333	      1.05066528	     -5.12344318	      6.46822808	      0.02639948	      0.98301759	      0.29637685	     26.30979566	      6.18765683	     -6.79130790	    -15.76248977	      5.15743112	    -20.70699935	      1.39731022	    -27.17831591	     -7.38822003	     -4.02898332	     -3.14613335	      4.08662613	      0.38812372	     20.47526946	      0.00000000	      0.00180213	      0.00000000	      6.78065684	    -10.70571427	      6.68792558	     -4.29414595
